<svg id="Layer_1" data-name="Layer 1" xmlns="http://www.w3.org/2000/svg" viewBox="0 0 705.59 250"><defs><style>.cls-1{fill:#00d2b9;}.cls-2{fill:#0f47cc;}.cls-3{fill:#5282fc;}.cls-4{fill:#122647;}</style></defs><path class="cls-1" d="M158.49,87.87V19.13A19.08,19.08,0,0,0,129.67,2.71L9.33,74.09A19,19,0,0,0,0,90.51v.24A19.08,19.08,0,0,1,28.83,74.34L114.24,125l34.92-20.72A19,19,0,0,0,158.49,87.87Z"/><path class="cls-2" d="M0,159.25v.24a19,19,0,0,0,9.33,16.42l120.34,71.38a19.08,19.08,0,0,0,28.82-16.42V162.13a19,19,0,0,0-9.33-16.41L114.24,125,28.83,175.66A19.07,19.07,0,0,1,0,159.25Z"/><path class="cls-3" d="M0,90.75v68.5a19.07,19.07,0,0,0,28.83,16.41L114.24,125,28.83,74.34A19.08,19.08,0,0,0,0,90.75Z"/><path class="cls-4" d="M233.49,95.2a25,25,0,0,1,9.82,1.85,23,23,0,0,1,7.32,4.84,23.38,23.38,0,0,1,7,14.41l-14.17.35a12.89,12.89,0,0,0-3.52-6.31,8.21,8.21,0,0,0-5.91-2.49,14.42,14.42,0,0,0-5.71,1,10.8,10.8,0,0,0-4.16,3.17c-2.68,3.33-4,7.92-4,13.78s1.27,10.31,3.81,13.24a11.7,11.7,0,0,0,9.23,4.45c3.62,0,6.21-.83,7.87-2.54A9.7,9.7,0,0,0,243.5,134h14.17a21.47,21.47,0,0,1-6.3,15.83c-4.3,4.3-10.26,6.4-18,6.4A25.19,25.19,0,0,1,214.24,148c-5.48-6-8.21-13.34-8.21-22.23,0-9.33,2.73-16.85,8.21-22.47A25.38,25.38,0,0,1,233.49,95.2Z"/><path class="cls-4" d="M293.68,95.2a32.22,32.22,0,0,1,10.94,1.85,22.65,22.65,0,0,1,8.79,5.67q8.22,8.36,8.21,23.06,0,14.52-8.21,22.82c-4.93,5.08-11.48,7.62-19.73,7.62s-14.9-2.54-20-7.62c-5.47-5.47-8.2-13.1-8.2-22.82q0-14.88,8.2-23.06C278.68,97.69,285.37,95.2,293.68,95.2Zm13.92,30.44c0-6.11-1.17-10.7-3.57-13.73a11.92,11.92,0,0,0-9.91-4.6,13.17,13.17,0,0,0-10.41,4.6c-2.69,3-4.06,7.62-4.06,13.73s1.23,10.69,3.62,13.72a11.93,11.93,0,0,0,9.92,4.6,13.14,13.14,0,0,0,10.36-4.6C306.23,136.33,307.6,131.74,307.6,125.64Z"/><path class="cls-4" d="M334.23,78.05a8,8,0,0,1,2.24-6,10.35,10.35,0,0,1,12.76,0,7.83,7.83,0,0,1,2.29,6,8,8,0,0,1-2.29,6,8.94,8.94,0,0,1-6.36,2.2,8.73,8.73,0,0,1-6.4-2.2A8.18,8.18,0,0,1,334.23,78.05Z"/><rect class="cls-4" x="335.89" y="96.61" width="14.02" height="57.94"/><path class="cls-4" d="M384,106.73c3.81-7.67,9.92-11.53,18.32-11.53q10.71,0,16.13,7c3.61,4.69,5.42,10.85,5.42,18.57v33.76h-14V120.8q0-6.45-3.08-9.68c-2.05-2.19-4.93-3.27-8.7-3.27s-6.93,1.66-9.57,5-4.06,8.31-4.2,15v26.78h-14V96.76H382.5Z"/><path class="cls-4" d="M460.62,96.27c6.69,0,12,1.71,16,5.18a23.86,23.86,0,0,1,7.71,12.9l-9.52.83a15.62,15.62,0,0,0-5-7.77,11.84,11.84,0,0,0-7.62-2.78,15.15,15.15,0,0,0-12.31,5.71q-4.69,5.72-4.69,15.54c0,6.55,1.52,11.77,4.59,15.78s6.84,6,11.44,6,8-1,10.21-3.18,3.37-5.08,3.37-9h9.62c0,6.1-2.1,11-6.35,14.8s-9.77,5.67-16.61,5.67a24,24,0,0,1-18.37-8.21c-5-5.47-7.57-12.75-7.57-21.84s2.49-16.27,7.47-21.6S453.93,96.27,460.62,96.27Z"/><path class="cls-4" d="M519.78,96.27c7.92,0,14.32,2.59,19.2,7.72s7.33,12.51,7.33,22.13-2.44,16.86-7.33,22-11.28,7.72-19.2,7.72-14.31-2.59-19.2-7.72-7.32-12.51-7.32-22,2.44-17,7.32-22.13S511.87,96.27,519.78,96.27Zm17.06,29.8c0-6.79-1.42-12.11-4.3-15.92s-7-5.77-12.56-5.77-9.72,1.91-12.65,5.77-4.4,9.13-4.4,15.92,1.37,12.12,4.15,15.93,6.94,5.77,12.41,5.77,9.77-1.91,12.8-5.77S536.84,132.87,536.84,126.07Z"/><path class="cls-4" d="M561.46,97.69l17.15,47,17.24-47h10.61l-22.62,56.87H573.48L550.86,97.69Z"/><path class="cls-4" d="M636.6,148.26c7.87,0,12.31-3.47,13.44-10.36h9.62c-.88,5.71-3.37,10.11-7.57,13.24s-9.33,4.69-15.54,4.69A23.58,23.58,0,0,1,618,147.67c-4.74-5.42-7.14-12.65-7.14-21.69s2.4-16.27,7.18-21.65,11.19-8.11,19.16-8.11,13.92,3.08,17.83,9.29,5.28,13.72,4.1,22.62H620.23c0,5.86,1.42,10.7,4.3,14.46A14.47,14.47,0,0,0,636.6,148.26Zm6.94-43.1a14.65,14.65,0,0,0-6.65-1.41,14.43,14.43,0,0,0-11.48,4.93A21.54,21.54,0,0,0,620.48,121h30.34C650.77,113.08,648.33,107.8,643.54,105.16Z"/><path class="cls-4" d="M697.87,105.65q-13.41,0-13.93,21.16v27.7h-9.38V97.59h9.38v11c2.84-7.92,7.92-11.88,15.1-11.88a19.48,19.48,0,0,1,6.55,1.08l-.49,9.13A21.66,21.66,0,0,0,697.87,105.65Z"/></svg>